<?xml version="1.0" encoding="UTF-8" standalone="no"?>
<!-- Created with Inkscape (http://www.inkscape.org/) -->

<svg
   width="210mm"
   height="297mm"
   viewBox="0 0 210 297"
   version="1.1"
   id="svg320"
   xml:space="preserve"
   inkscape:version="1.2.1 (9c6d41e410, 2022-07-14)"
   sodipodi:docname="TreppchenHell.svg"
   xmlns:inkscape="http://www.inkscape.org/namespaces/inkscape"
   xmlns:sodipodi="http://sodipodi.sourceforge.net/DTD/sodipodi-0.dtd"
   xmlns="http://www.w3.org/2000/svg"
   xmlns:svg="http://www.w3.org/2000/svg"><sodipodi:namedview
     id="namedview322"
     pagecolor="#505050"
     bordercolor="#eeeeee"
     borderopacity="1"
     inkscape:showpageshadow="0"
     inkscape:pageopacity="0"
     inkscape:pagecheckerboard="0"
     inkscape:deskcolor="#505050"
     inkscape:document-units="mm"
     showgrid="false"
     inkscape:zoom="0.61023429"
     inkscape:cx="397.38836"
     inkscape:cy="561.25984"
     inkscape:window-width="1500"
     inkscape:window-height="930"
     inkscape:window-x="-6"
     inkscape:window-y="-6"
     inkscape:window-maximized="1"
     inkscape:current-layer="layer1" /><defs
     id="defs317" /><g
     inkscape:label="Ebene 1"
     inkscape:groupmode="layer"
     id="layer1"><g
       id="g336"
       transform="translate(-3.9021898,-69.372263)"><path
         style="fill:#fdfdfd;stroke-width:0.132292"
         d="m 39.128792,148.5 v -34.13125 h 66.013538 66.01354 V 148.5 182.63125 H 105.14233 39.128792 Z"
         id="path352" /><path
         style="fill:#f5f4f5;stroke-width:0.132292"
         d="m 47.204577,178.91508 c -1.427576,-0.28038 -2.670112,-1.25217 -3.34017,-2.61236 l -0.303844,-0.61679 v -12.76614 -12.76615 l 0.324183,-0.66145 c 0.697885,-1.42396 2.157869,-2.45331 3.726473,-2.62732 0.318754,-0.0354 8.437677,-0.0689 18.042051,-0.0745 l 17.4625,-0.0102 V 135.6346 c 0,-11.10536 0.0011,-11.14779 0.282751,-11.75709 0.38771,-0.8385 1.157274,-1.65518 1.957812,-2.07767 l 0.669854,-0.35353 h 19.777603 19.7776 l 0.5682,0.30339 c 0.87577,0.46761 1.57062,1.16809 1.97448,1.99048 l 0.36774,0.74884 v 11.14265 11.14266 l 16.7349,0.036 16.73489,0.036 0.79375,0.37072 c 1.31962,0.61632 2.23513,1.66101 2.63468,3.00644 0.18453,0.62138 0.20959,2.14055 0.20959,12.70636 0,11.69348 -0.007,12.02288 -0.26906,12.87172 -0.35845,1.16052 -1.35274,2.26058 -2.5379,2.80787 l -0.83106,0.38377 -57.08385,0.0188 c -32.16583,0.0106 -57.341102,-0.0317 -57.673173,-0.097 z"
         id="path350" /><path
         style="fill:#dad7db;stroke-width:0.132292"
         d="m 46.735563,178.7432 c -0.735158,-0.23174 -1.064684,-0.42424 -1.684104,-0.98385 -0.683151,-0.61719 -1.083239,-1.25357 -1.347453,-2.14328 -0.184525,-0.62136 -0.209589,-2.13967 -0.209589,-12.69628 0,-13.00225 -0.01494,-12.71437 0.720002,-13.87858 0.417602,-0.66153 1.314917,-1.44365 2.04193,-1.77981 l 0.611505,-0.28276 18.190104,-0.0349 18.190104,-0.0349 -0.03676,-10.99801 c -0.03198,-9.56888 -0.01038,-11.08875 0.166239,-11.69631 0.267376,-0.91974 1.263806,-2.02278 2.21604,-2.45313 l 0.697192,-0.3151 h 19.513017 19.51302 l 0.69719,0.3151 c 0.95224,0.43035 1.94867,1.53339 2.21604,2.45313 0.17663,0.60757 0.19823,2.12761 0.16624,11.69814 l -0.0368,10.99983 16.69686,-2e-5 c 16.56801,-3e-5 16.70251,0.002 17.4297,0.27416 1.07763,0.40319 1.91913,1.12962 2.45614,2.12027 l 0.45896,0.84668 v 12.76615 12.76614 l -0.45429,0.83792 c -0.50082,0.92375 -1.20926,1.57904 -2.20208,2.0369 l -0.65092,0.30018 -57.41458,0.0245 c -45.882491,0.0196 -57.520864,-0.009 -57.943744,-0.14227 z"
         id="path348" /><path
         style="fill:#aeacaf;stroke-width:0.132292"
         d="m 143.83764,166.63018 c -0.21828,-0.0544 -0.61833,-0.19339 -0.88901,-0.30878 -0.48151,-0.20527 -0.48896,-0.21928 -0.34461,-0.64816 0.24902,-0.73988 0.32281,-0.77672 0.9765,-0.48756 1.89612,0.83874 3.7636,0.12216 3.76236,-1.44367 -0.001,-1.2569 -0.73907,-1.88109 -2.34768,-1.98543 l -0.95912,-0.0622 v -0.57792 -0.57791 l 0.69453,-0.003 c 1.35601,-0.006 2.28203,-0.68557 2.28203,-1.67548 0,-0.5018 -0.066,-0.65125 -0.43203,-0.9783 -0.36734,-0.32821 -0.54196,-0.38602 -1.1661,-0.38602 -0.45753,0 -0.98271,0.10696 -1.39409,0.28393 -0.74867,0.32207 -0.88123,0.26277 -0.99619,-0.44564 -0.0759,-0.468 -0.0736,-0.47057 0.66899,-0.74843 2.03575,-0.76167 3.93203,-0.33115 4.6491,1.0555 0.24447,0.47276 0.24724,1.6135 0.005,2.0771 -0.20132,0.38535 -0.78764,0.96988 -1.18267,1.17905 -0.2161,0.11443 -0.17396,0.17115 0.35932,0.48368 0.90476,0.53022 1.31434,1.14315 1.38116,2.06685 0.0305,0.42174 -0.0184,0.9907 -0.10874,1.26435 -0.24671,0.74752 -1.16053,1.58931 -1.994,1.83683 -0.71882,0.21347 -2.26458,0.25577 -2.9648,0.0811 z m -83.145307,-0.50253 c 0,-0.46749 0.119807,-0.61992 1.795533,-2.28434 2.570853,-2.55351 3.093046,-3.41752 2.931531,-4.85048 -0.100291,-0.88979 -0.642928,-1.38855 -1.596755,-1.46764 -0.692216,-0.0574 -1.081458,0.0635 -2.361872,0.73341 -0.11294,0.0591 -0.503854,-0.67632 -0.503854,-0.94788 0,-0.11407 0.379156,-0.3809 0.892969,-0.62841 0.756245,-0.36431 1.044883,-0.43117 1.885156,-0.43671 1.682474,-0.0111 2.842869,0.7918 3.180907,2.20089 0.398243,1.66007 -0.380168,3.22951 -2.776383,5.59778 l -1.204674,1.19062 2.15294,0.0661 2.152939,0.0661 v 0.59531 0.59531 l -3.274218,0.0354 -3.274219,0.0354 z m 43.876737,-24.7273 c -0.0485,-0.0485 -0.0882,-2.018 -0.0882,-4.37665 0,-2.35865 -0.0496,-4.26861 -0.11031,-4.24436 -0.0607,0.0243 -0.4441,0.22126 -0.85205,0.43779 -0.40796,0.21654 -0.77231,0.36313 -0.80967,0.32577 -0.0374,-0.0374 -0.10656,-0.30951 -0.15378,-0.60477 l -0.0858,-0.53684 1.1922,-0.61575 c 0.84843,-0.43819 1.34828,-0.61575 1.73344,-0.61575 h 0.54122 v 5.15938 5.15937 h -0.63941 c -0.35167,0 -0.6791,-0.0397 -0.7276,-0.0882 z"
         id="path346" /><path
         style="fill:#908f90;stroke-width:0.132292"
         d="m 143.53072,166.50454 c -0.94097,-0.32499 -1.0132,-0.41227 -0.82157,-0.99288 0.0863,-0.26136 0.19686,-0.47326 0.24578,-0.47088 0.0489,0.002 0.41639,0.11949 0.81657,0.26026 0.93451,0.32873 1.89557,0.3291 2.61847,0.001 0.44596,-0.20241 0.62484,-0.3864 0.83287,-0.85668 0.65171,-1.47329 -0.42089,-2.70648 -2.35994,-2.7133 l -0.82682,-0.003 v -0.59531 -0.59531 h 0.75198 c 1.69947,0 2.72498,-1.15777 2.09853,-2.36919 -0.37972,-0.73429 -1.76638,-0.93139 -2.93035,-0.4165 -0.33839,0.14968 -0.63162,0.27215 -0.65164,0.27215 -0.0485,0 -0.32685,-0.80323 -0.32685,-0.9431 0,-0.19831 0.99097,-0.62054 1.80128,-0.76748 2.04465,-0.37077 3.61484,0.56549 3.72246,2.21961 0.0598,0.9194 -0.22006,1.50025 -0.99774,2.07066 -0.56522,0.41457 -0.68018,0.59531 -0.37866,0.59531 0.36938,0 1.30218,0.8218 1.54842,1.36415 0.74044,1.6309 -0.19276,3.439 -2.0659,4.00273 -0.86186,0.25939 -2.22535,0.23176 -3.07689,-0.0623 z m -82.838387,-0.31906 c 0,-0.38736 0.227575,-0.66884 1.951933,-2.41432 2.282629,-2.3106 2.810567,-3.12754 2.810567,-4.34911 0,-1.35024 -0.567609,-1.92622 -1.898225,-1.92622 -0.542277,0 -0.90447,0.0966 -1.462744,0.39032 l -0.742003,0.39031 -0.204621,-0.48953 c -0.201874,-0.48297 -0.199642,-0.49352 0.166331,-0.7867 0.837505,-0.67092 2.758666,-0.9606 3.756324,-0.56639 1.259378,0.49762 1.890071,1.45622 1.879709,2.85699 -0.01052,1.42185 -0.666619,2.52831 -2.79905,4.72037 l -1.383454,1.42213 h 2.203762 2.203763 v 0.59531 0.59532 h -3.241146 -3.241146 z m 43.876737,-24.78513 c -0.0485,-0.0485 -0.0882,-2.01304 -0.0882,-4.36563 0,-2.35259 -0.0446,-4.27635 -0.0992,-4.27503 -0.0546,0.001 -0.42281,0.18076 -0.81832,0.39875 -0.39551,0.218 -0.76295,0.35087 -0.81653,0.29526 -0.0536,-0.0556 -0.13375,-0.30946 -0.17814,-0.56412 l -0.0807,-0.46302 1.06284,-0.56224 c 0.84066,-0.44471 1.20106,-0.56224 1.72407,-0.56224 h 0.66123 v 5.09323 5.09323 h -0.63941 c -0.35167,0 -0.6791,-0.0397 -0.7276,-0.0882 z"
         id="path344" /><path
         style="fill:#706f6f;stroke-width:0.132292"
         d="m 143.79761,166.55858 c -0.81941,-0.23052 -1.21674,-0.42466 -1.21674,-0.59451 0,-0.1028 0.2535,-0.76309 0.34839,-0.90746 0.0166,-0.0253 0.36399,0.0789 0.77193,0.23151 1.40373,0.5252 2.80649,0.29687 3.43434,-0.55902 0.37344,-0.50908 0.37406,-1.52358 0.001,-2.02295 -0.54348,-0.72793 -0.9255,-0.90622 -2.05128,-0.95735 l -1.04936,-0.0476 v -0.58131 -0.5813 h 0.79902 c 1.33249,0 2.24369,-0.67157 2.24369,-1.65365 0,-0.49446 -0.31744,-1.03736 -0.73758,-1.26144 -0.53135,-0.2834 -1.72835,-0.22477 -2.39928,0.11751 -0.30622,0.15622 -0.58429,0.28404 -0.61792,0.28404 -0.0336,0 -0.1332,-0.21828 -0.22124,-0.48505 -0.14197,-0.43016 -0.13216,-0.50547 0.0867,-0.66547 0.84808,-0.62014 3.07985,-0.76496 4.03392,-0.26176 1.69205,0.89242 1.72931,3.20827 0.0666,4.14093 l -0.50859,0.28528 0.6448,0.32139 c 2.09059,1.04204 1.9223,3.93233 -0.29137,5.00395 -0.77265,0.37403 -2.36812,0.46693 -3.33721,0.19431 z m -83.105277,-0.35281 c 0,-0.3605 0.269747,-0.69353 1.955557,-2.41432 1.075555,-1.09788 2.117451,-2.2748 2.315323,-2.61538 0.80029,-1.37749 0.733333,-2.77777 -0.161661,-3.38091 -0.668158,-0.45027 -1.838401,-0.41602 -2.738167,0.0802 l -0.679469,0.37468 -0.224233,-0.47022 c -0.255736,-0.53628 -0.234063,-0.56702 0.789421,-1.11943 0.435324,-0.23496 0.752044,-0.28591 1.785937,-0.2873 1.500815,-0.002 2.096876,0.24211 2.70983,1.10984 0.5341,0.7561 0.624267,2.0994 0.214168,3.19066 -0.328439,0.87397 -1.638509,2.55014 -2.921694,3.73817 -0.510589,0.47273 -0.928345,0.89598 -0.928345,0.94056 0,0.0446 0.982265,0.0811 2.182812,0.0811 h 2.182813 v 0.59531 0.59532 h -3.241146 -3.241146 z m 43.876737,-24.80542 c -0.0485,-0.0485 -0.0882,-2.04168 -0.0882,-4.42927 v -4.34107 l -0.85158,0.46809 -0.85159,0.46809 -0.13564,-0.49125 c -0.0746,-0.27019 -0.10361,-0.54309 -0.0644,-0.60644 0.0391,-0.0634 0.54161,-0.35172 1.11658,-0.6408 0.75782,-0.38103 1.20996,-0.52562 1.64364,-0.52562 h 0.59825 v 5.09323 5.09323 h -0.63941 c -0.35167,0 -0.6791,-0.0397 -0.7276,-0.0882 z"
         id="path342" /><path
         style="fill:#575656;stroke-width:0.132292"
         d="m 144.08989,166.62814 c -0.94979,-0.20276 -1.5472,-0.50762 -1.45674,-0.74336 0.0446,-0.11629 0.118,-0.35829 0.16305,-0.53778 0.0595,-0.23721 0.14066,-0.30177 0.29709,-0.23639 0.68548,0.2865 1.47137,0.45499 2.12137,0.45481 1.29248,-4e-4 2.10367,-0.63599 2.21744,-1.73755 0.12536,-1.21383 -0.80721,-2.02751 -2.50552,-2.1861 l -0.8905,-0.0832 v -0.4268 c 0,-0.42541 0.003,-0.42711 0.82682,-0.51998 1.5035,-0.16942 2.21589,-0.72462 2.21589,-1.72694 0,-1.38166 -1.63199,-1.94487 -3.24809,-1.12093 -0.2773,0.14137 -0.51284,0.24305 -0.52344,0.22596 -0.0106,-0.0171 -0.0973,-0.22688 -0.19259,-0.4662 -0.15546,-0.39029 -0.14758,-0.45402 0.0764,-0.61845 0.45613,-0.33486 1.52568,-0.60008 2.41464,-0.59877 1.15965,0.002 2.0986,0.42286 2.5419,1.14014 0.68345,1.10584 0.27511,2.6827 -0.85187,3.28962 -0.26484,0.14263 -0.47908,0.29043 -0.4761,0.32846 0.003,0.038 0.30083,0.20769 0.66188,0.37703 1.07111,0.50238 1.61208,1.70351 1.31847,2.92742 -0.20327,0.84734 -0.86952,1.61121 -1.72704,1.98011 -0.76143,0.32755 -2.14787,0.45716 -2.98305,0.27886 z m -83.397557,-0.42539 c 0,-0.36503 0.262021,-0.68703 1.9646,-2.41432 2.037884,-2.06747 2.728205,-3.02553 2.87228,-3.98629 0.104973,-0.70001 -0.120793,-1.51805 -0.523325,-1.89621 -0.683786,-0.64238 -2.122982,-0.61793 -3.144216,0.0534 l -0.484308,0.31838 -0.199638,-0.49017 c -0.189994,-0.46649 -0.185771,-0.50128 0.08743,-0.72016 0.914701,-0.73283 2.949756,-0.99358 3.991237,-0.51139 1.076126,0.49823 1.653645,1.46559 1.653645,2.76988 0,1.42326 -1.055294,3.06476 -3.349377,5.20993 l -0.950102,0.88843 2.282031,0.005 2.282032,0.005 v 0.59531 0.59532 H 63.933476 60.69233 Z m 43.920837,-29.14598 c 0,-2.43747 -0.0389,-4.43177 -0.0865,-4.43177 -0.0476,0 -0.46011,0.20893 -0.91673,0.46428 -0.91207,0.51006 -0.8092,0.54151 -1.05301,-0.32194 -0.11035,-0.3908 1.9166,-1.46526 2.76419,-1.46526 h 0.61497 v 5.09323 5.09323 h -0.66146 -0.66145 z"
         id="path340" /><path
         style="fill:#000000;stroke-width:0.132292"
         d="m 144.23795,166.61512 c -0.91397,-0.15279 -1.68644,-0.51758 -1.59586,-0.75363 0.0397,-0.10348 0.10817,-0.33145 0.15213,-0.50659 0.0439,-0.17515 0.0883,-0.31841 0.0986,-0.31838 0.0103,4e-5 0.33191,0.1191 0.71468,0.26459 0.82576,0.31385 2.25367,0.3542 2.78328,0.0786 0.67894,-0.35325 0.99271,-0.82006 1.05258,-1.56597 0.10295,-1.28272 -0.78846,-2.06508 -2.49178,-2.18695 l -0.91555,-0.0655 v -0.44524 c 0,-0.42773 0.0199,-0.44525 0.50516,-0.44525 1.47411,0 2.53755,-0.74037 2.53755,-1.76665 0,-1.37712 -1.36804,-1.92389 -3.06613,-1.22546 l -0.75103,0.3089 -0.0752,-0.29975 c -0.0414,-0.16486 -0.1083,-0.38593 -0.14873,-0.49127 -0.0513,-0.13369 0.13827,-0.28658 0.62783,-0.50633 0.90829,-0.40773 2.83177,-0.45471 3.50827,-0.0857 1.01706,0.55478 1.49863,1.60226 1.21845,2.65026 -0.1565,0.58536 -1.14328,1.68058 -1.51419,1.68058 -0.34879,0 -0.2078,0.22918 0.18992,0.30872 0.46833,0.0937 1.27215,0.77593 1.55218,1.31743 0.11648,0.22526 0.20491,0.7301 0.20491,1.16987 0,1.48848 -1.03813,2.58672 -2.72239,2.88002 -0.9188,0.16001 -0.92942,0.16003 -1.8647,0.004 z m -83.545617,-0.4901 c 0,-0.29236 0.311022,-0.67432 1.535045,-1.88516 2.012779,-1.99109 2.616638,-2.70577 3.021982,-3.57657 1.153712,-2.47851 -1.048431,-4.24055 -3.382962,-2.70687 l -0.479583,0.31506 -0.200162,-0.50957 -0.200164,-0.50956 0.800431,-0.42663 c 1.518822,-0.80952 3.281736,-0.67692 4.280632,0.32198 0.986077,0.98607 1.101235,2.40573 0.323321,3.98589 -0.327901,0.66606 -0.834739,1.29409 -2.089838,2.58953 l -1.656951,1.71021 h 2.265271 2.26527 v 0.52917 0.52916 h -3.241146 -3.241146 z m 43.920837,-29.1344 c 0,-2.40109 -0.0397,-4.36562 -0.0882,-4.36562 -0.0485,0 -0.46213,0.20552 -0.91912,0.45672 -0.90988,0.50012 -0.81049,0.52991 -1.04889,-0.31438 -0.11035,-0.3908 1.9166,-1.46526 2.76419,-1.46526 h 0.61497 v 5.02709 5.02708 h -0.66146 -0.66145 z"
         id="path338" /></g></g></svg>
