<?xml version="1.0" encoding="UTF-8" standalone="no"?>
<!-- Created with Inkscape (http://www.inkscape.org/) -->

<svg
   width="210mm"
   height="297mm"
   viewBox="0 0 210 297"
   version="1.1"
   id="svg370"
   xml:space="preserve"
   inkscape:version="1.2.1 (9c6d41e410, 2022-07-14)"
   sodipodi:docname="TreppchenDunkel.svg"
   xmlns:inkscape="http://www.inkscape.org/namespaces/inkscape"
   xmlns:sodipodi="http://sodipodi.sourceforge.net/DTD/sodipodi-0.dtd"
   xmlns="http://www.w3.org/2000/svg"
   xmlns:svg="http://www.w3.org/2000/svg"><sodipodi:namedview
     id="namedview372"
     pagecolor="#505050"
     bordercolor="#eeeeee"
     borderopacity="1"
     inkscape:showpageshadow="0"
     inkscape:pageopacity="0"
     inkscape:pagecheckerboard="0"
     inkscape:deskcolor="#505050"
     inkscape:document-units="mm"
     showgrid="false"
     inkscape:zoom="0.61023429"
     inkscape:cx="397.38836"
     inkscape:cy="561.25984"
     inkscape:window-width="1500"
     inkscape:window-height="930"
     inkscape:window-x="-6"
     inkscape:window-y="-6"
     inkscape:window-maximized="1"
     inkscape:current-layer="layer1" /><defs
     id="defs367" /><g
     inkscape:label="Ebene 1"
     inkscape:groupmode="layer"
     id="layer1"><g
       id="g386"
       transform="translate(-7.3708029,-34.686132)"><path
         style="fill:#fdfdfd;stroke-width:0.132292"
         d="M 39.742458,118.36642 V 84.698196 h 65.616672 65.61667 v 33.668224 33.66823 H 105.35913 39.742458 Z"
         id="path402" /><path
         style="fill:#cecece;stroke-width:0.132292"
         d="M 39.742458,118.36642 V 84.698196 h 65.616672 65.61667 v 33.668224 33.66823 H 105.35913 39.742458 Z m 123.304792,29.2716 c 0.94987,-0.46648 1.65962,-1.17382 2.09279,-2.08566 l 0.34565,-0.7276 v -12.76615 -12.76614 l -0.34565,-0.72761 c -0.43317,-0.91184 -1.14292,-1.61917 -2.09279,-2.08566 l -0.73656,-0.36173 -16.93333,-0.035 -16.93333,-0.035 V 104.96994 93.892467 l -0.36911,-0.751629 c -0.43436,-0.884507 -1.05971,-1.472052 -2.07225,-1.946974 l -0.73365,-0.344106 h -19.31458 c -18.273987,0 -19.351436,0.01286 -19.998601,0.23865 -0.873287,0.304686 -1.808997,1.128169 -2.265734,1.99399 l -0.357541,0.677777 v 11.143305 11.14331 l -18.256251,0.0353 -18.25625,0.0353 -0.746325,0.36651 c -0.870756,0.42761 -1.73792,1.31385 -2.142808,2.18993 l -0.285868,0.61856 v 12.76614 c 0,12.76063 1.22e-4,12.76641 0.282751,13.37765 0.546989,1.18298 1.637328,2.13031 2.819563,2.44977 0.472402,0.12765 12.965246,0.15737 58.082584,0.13818 l 57.48073,-0.0245 z m -19.38968,-11.91983 c -1.02815,-0.33769 -1.12821,-0.43252 -0.96583,-0.91535 0.24483,-0.72799 0.32159,-0.76662 0.96117,-0.4837 1.26522,0.55966 2.62371,0.44222 3.32258,-0.28725 0.28075,-0.29304 0.37578,-0.53943 0.41555,-1.07738 0.0946,-1.27937 -0.68924,-1.95919 -2.37748,-2.062 l -0.89297,-0.0544 v -0.58039 -0.58038 l 0.69453,-0.003 c 0.8298,-0.003 1.71133,-0.37124 2.02036,-0.84287 0.46481,-0.70939 0.16602,-1.79683 -0.57207,-2.08209 -0.48943,-0.18915 -1.70889,-0.0815 -2.30154,0.20309 -0.26919,0.12929 -0.5461,0.20005 -0.61535,0.15725 -0.18432,-0.11391 -0.4037,-0.81207 -0.30383,-0.96687 0.34889,-0.54079 2.39542,-0.96336 3.48485,-0.71955 2.34428,0.52462 2.8745,3.26933 0.87166,4.51217 l -0.35941,0.22303 0.69014,0.4539 c 1.86156,1.22435 1.67881,3.80412 -0.34333,4.84643 -0.57626,0.29703 -0.88787,0.36012 -1.94309,0.3934 -0.78673,0.0248 -1.45469,-0.0254 -1.78594,-0.13416 z m -82.880736,-0.43773 c 0,-0.44962 0.154587,-0.64493 2.017448,-2.54892 2.210786,-2.2596 2.634548,-2.90204 2.712678,-4.11251 0.03645,-0.56464 -0.01458,-0.82569 -0.22781,-1.16552 -0.601377,-0.95841 -2.1608,-1.08452 -3.332113,-0.26946 -0.193132,0.1344 -0.404415,0.24435 -0.469517,0.24435 -0.118379,0 -0.436103,-0.74776 -0.436103,-1.02636 0,-0.0812 0.399009,-0.34411 0.886685,-0.5842 0.779714,-0.38385 1.015122,-0.4366 1.951303,-0.43728 0.784832,-5.3e-4 1.1863,0.0639 1.527638,0.24526 1.13252,0.60178 1.633531,1.44179 1.638578,2.74729 0.0054,1.40322 -0.611023,2.4991 -2.518948,4.47803 l -1.525287,1.58205 2.161942,0.0364 2.161944,0.0364 v 0.59531 0.59531 l -3.274219,0.0354 -3.274219,0.0354 z m 43.788546,-30.91478 v -4.423417 l -0.86852,0.461187 c -0.47768,0.25365 -0.89732,0.43238 -0.93252,0.39718 -0.0352,-0.0352 -0.076,-0.32232 -0.0906,-0.63805 l -0.0266,-0.574033 1.11183,-0.572618 c 0.8774,-0.451875 1.22609,-0.56425 1.65365,-0.532935 l 0.54181,0.03968 v 5.093226 5.09323 l -0.69453,0.04 -0.69453,0.04 z"
         id="path400" /><path
         style="fill:#b2b1b1;stroke-width:0.132292"
         d="M 39.742458,118.36642 V 84.698196 h 65.616672 65.61667 v 33.668224 33.66823 H 105.35913 39.742458 Z m 123.399572,29.26502 c 0.88946,-0.46864 1.60481,-1.184 2.01852,-2.01851 l 0.32514,-0.65588 v -12.89844 -12.89844 l -0.32514,-0.65587 c -0.41371,-0.83452 -1.12906,-1.54987 -2.01852,-2.01851 l -0.69904,-0.36832 -16.99948,-0.035 -16.99948,-0.035 V 104.96995 93.892467 l -0.31265,-0.691496 c -0.36563,-0.808711 -1.23731,-1.661327 -2.11151,-2.065345 l -0.61855,-0.285868 H 105.88829 86.375273 l -0.697192,0.315092 c -0.888356,0.401487 -1.917933,1.507846 -2.203613,2.367949 -0.187624,0.564882 -0.207256,1.85233 -0.176503,11.575251 l 0.0346,10.93967 -18.322396,0.0349 -18.322397,0.0349 -0.661459,0.35062 c -0.894582,0.4742 -1.619523,1.22093 -2.035598,2.09677 l -0.345652,0.72761 v 12.76614 12.76615 l 0.345652,0.7276 c 0.533017,1.12201 1.580318,2.02792 2.763203,2.39014 0.181901,0.0557 26.286355,0.0914 58.009902,0.0793 l 57.67917,-0.022 z m -19.56259,-11.98723 c -1.04489,-0.33431 -1.05481,-0.34372 -0.8881,-0.84347 0.0783,-0.23486 0.18542,-0.47515 0.23794,-0.53396 0.0525,-0.0588 0.45924,0.0156 0.90381,0.16536 1.02056,0.3438 1.90098,0.34737 2.5968,0.0105 0.66711,-0.32294 0.99814,-0.85748 0.9975,-1.61072 -0.001,-1.22212 -0.92863,-1.95561 -2.47998,-1.96106 l -0.82682,-0.003 v -0.59532 -0.59531 l 0.62838,-7.9e-4 c 0.91288,-0.001 1.5168,-0.2072 1.95883,-0.66857 0.31348,-0.32721 0.38935,-0.52283 0.38935,-1.00388 0,-0.50767 -0.0649,-0.6555 -0.43203,-0.9835 -0.38055,-0.34002 -0.53032,-0.38568 -1.25678,-0.38312 -0.53765,0.002 -1.02836,0.0953 -1.40971,0.2683 -0.66619,0.30223 -0.81824,0.22747 -0.84915,-0.41755 -0.0186,-0.38895 0.0385,-0.46832 0.49391,-0.68586 1.25775,-0.60081 2.96889,-0.56596 3.94169,0.0803 0.53107,0.35279 1.03448,1.29928 1.03052,1.93751 -0.004,0.71832 -0.4407,1.5355 -1.04174,1.95143 -0.29305,0.20279 -0.53229,0.39848 -0.53166,0.43486 6.6e-4,0.0364 0.25134,0.18918 0.55713,0.33956 1.09849,0.54019 1.62832,1.82042 1.28345,3.10118 -0.2287,0.84933 -1.16776,1.75603 -2.1073,2.03469 -0.93094,0.27611 -2.2643,0.26036 -3.19604,-0.0377 z m -82.802606,-0.37005 c 0,-0.4532 0.136659,-0.6238 1.885156,-2.35339 1.159267,-1.14673 2.063445,-2.16642 2.348178,-2.64816 0.414864,-0.70192 0.46302,-0.88342 0.46302,-1.74511 0,-0.90678 -0.02433,-0.98605 -0.425968,-1.38769 -0.371659,-0.37165 -0.531895,-0.43254 -1.256771,-0.47756 -0.727251,-0.0452 -0.926162,-0.001 -1.595885,0.35253 l -0.765082,0.40412 -0.217154,-0.45537 c -0.204171,-0.42815 -0.202831,-0.47121 0.0224,-0.72009 0.408196,-0.45105 1.625853,-0.83963 2.661633,-0.84939 1.180069,-0.0111 2.047181,0.39128 2.62995,1.22046 0.321251,0.45709 0.403378,0.72522 0.444382,1.45088 0.02766,0.48959 -0.01486,1.13213 -0.09449,1.42787 -0.232151,0.86215 -1.109838,2.08333 -2.563023,3.5661 l -1.353531,1.38109 2.149739,-3e-4 2.14974,-2.9e-4 v 0.66146 0.66146 H 64.01798 60.776834 Z m 43.788546,-30.93512 v -4.450074 l -0.86989,0.486464 c -0.47843,0.26756 -0.89242,0.46392 -0.91998,0.43637 -0.0276,-0.0276 -0.0888,-0.29209 -0.13609,-0.58785 l -0.086,-0.537749 1.03905,-0.574573 c 0.82407,-0.455695 1.1759,-0.576061 1.7005,-0.581763 l 0.66146,-0.0072 v 5.093225 5.09323 l -0.69453,0.04 -0.69453,0.04 v -4.45007 z"
         id="path398" /><path
         style="fill:#8b8a8a;stroke-width:0.132292"
         d="M 39.742458,118.36642 V 84.698196 h 65.616672 65.61667 v 33.668224 33.66823 H 105.35913 39.742458 Z M 162.84109,147.7895 c 1.0239,-0.38309 2.04707,-1.39927 2.42444,-2.40786 0.28617,-0.76487 0.28631,-0.77146 0.28631,-13.32303 0,-12.53276 -5.3e-4,-12.5593 -0.28493,-13.31932 -0.38446,-1.02757 -1.37547,-2.01858 -2.40304,-2.40304 l -0.76154,-0.28493 -16.82915,2e-5 -16.82915,2e-5 0.0353,-10.87981 c 0.0322,-9.900832 0.0153,-10.943672 -0.18786,-11.589499 -0.29301,-0.931553 -1.25713,-1.994235 -2.19301,-2.417201 l -0.69719,-0.315092 -19.1823,-0.03936 c -21.432759,-0.04397 -20.147759,-0.09662 -21.437603,0.878248 -0.449857,0.340003 -0.784763,0.750164 -1.08311,1.326491 l -0.431888,0.834298 v 11.099115 11.09912 l -18.289324,0.0349 -18.289324,0.0349 -0.658008,0.32379 c -0.838501,0.41262 -1.6391,1.21334 -2.057128,2.05746 l -0.327573,0.66145 -0.03654,12.63386 c -0.04027,13.92394 -0.07563,13.26537 0.778793,14.50722 0.451832,0.65672 1.37646,1.33354 2.154448,1.57704 0.438387,0.13721 11.612491,0.17162 58.051727,0.17876 l 57.50884,0.009 z m -18.89017,-12.03884 c -0.59548,-0.14022 -1.28554,-0.48 -1.28554,-0.633 0,-0.21265 0.29175,-0.94238 0.37674,-0.94232 0.0475,4e-5 0.39946,0.1191 0.78223,0.26459 1.40489,0.53397 2.9481,0.2203 3.42373,-0.6959 0.30539,-0.58826 0.28813,-1.47508 -0.0374,-1.92199 -0.42544,-0.58408 -1.30115,-0.95405 -2.25822,-0.95405 h -0.83186 v -0.59532 -0.59531 h 0.75198 c 1.26324,0 2.29073,-0.71225 2.29073,-1.58792 0,-0.45811 -0.38003,-1.14006 -0.7222,-1.29596 -0.81303,-0.37044 -1.52146,-0.29851 -2.86384,0.2908 -0.15577,0.0684 -0.25706,-0.014 -0.37887,-0.30806 -0.23751,-0.57339 -0.12043,-0.7403 0.74773,-1.06596 0.6231,-0.23375 0.98595,-0.28032 1.90425,-0.24443 0.98146,0.0384 1.21052,0.0947 1.69841,0.41776 1.45968,0.96653 1.33756,3.24282 -0.21675,4.04023 l -0.49338,0.25312 0.63217,0.29716 c 1.78827,0.84058 2.05518,3.14447 0.52076,4.49512 -0.34994,0.30802 -0.88148,0.6131 -1.26849,0.72802 -0.72556,0.21547 -1.98122,0.23967 -2.77217,0.0534 z m -83.174086,-0.45135 c 0,-0.41665 0.147999,-0.60644 1.465454,-1.87927 2.494655,-2.41015 3.288696,-3.59291 3.294141,-4.9068 0.0055,-1.31606 -0.578675,-1.88045 -1.941827,-1.87619 -0.595773,0.002 -0.923024,0.0883 -1.464264,0.38668 l -0.697017,0.38427 -0.195073,-0.46687 c -0.107292,-0.25678 -0.158532,-0.526 -0.113869,-0.59827 0.04466,-0.0723 0.446103,-0.30402 0.89209,-0.51501 1.081605,-0.51169 2.601535,-0.54288 3.522865,-0.0723 0.843405,0.43077 1.361301,1.30151 1.4317,2.40711 0.09917,1.55744 -0.545065,2.72621 -2.721292,4.937 -0.745932,0.75777 -1.356241,1.39909 -1.356241,1.42514 0,0.026 0.982266,0.0474 2.182812,0.0474 h 2.182813 v 0.59532 0.59531 H 64.01798 60.776834 Z m 43.788546,-31.0308 v -4.374471 l -0.86112,0.457261 c -0.47362,0.25149 -0.88493,0.41873 -0.91403,0.37164 -0.0291,-0.0471 -0.094,-0.30482 -0.1443,-0.57273 l -0.0914,-0.487115 1.2157,-0.610562 c 0.91485,-0.459463 1.33554,-0.600576 1.69995,-0.57021 l 0.48424,0.04035 0.0346,5.060157 0.0346,5.06016 h -0.72918 -0.72917 z"
         id="path396" /><path
         style="fill:#656464;stroke-width:0.132292"
         d="M 39.742458,118.36642 V 84.698196 h 65.616672 65.61667 v 33.668224 33.66823 H 105.35913 39.742458 Z m 123.401022,29.32995 c 0.8871,-0.47366 1.56919,-1.1684 2.00668,-2.04391 l 0.40168,-0.80382 v -12.79003 -12.79003 l -0.40168,-0.80382 c -0.43749,-0.87551 -1.11958,-1.57025 -2.00668,-2.04391 l -0.5682,-0.30338 -17.03256,-0.035 -17.03255,-0.035 v -10.97329 c 0,-10.757619 -0.005,-10.987613 -0.27265,-11.702018 -0.32969,-0.881178 -1.13379,-1.74533 -2.04245,-2.195006 l -0.66146,-0.327338 -19.37397,-0.03481 c -21.405723,-0.03846 -20.165257,-0.08502 -21.326233,0.800482 -0.69461,0.529797 -1.226966,1.288433 -1.458612,2.0786 -0.138261,0.471622 -0.174522,2.855731 -0.174522,11.4745 v 10.8792 l -18.322397,0.0349 -18.322397,0.0349 -0.708476,0.39241 c -0.903262,0.50031 -1.656523,1.3564 -1.999092,2.272 -0.263527,0.70433 -0.268994,0.97421 -0.268994,13.27673 0,12.25054 0.0065,12.57515 0.265641,13.26777 0.442377,1.18236 1.405495,2.1191 2.629202,2.5572 0.389456,0.13943 11.245944,0.1662 58.29006,0.14376 l 57.81146,-0.0276 z m -19.26136,-11.999 c -0.79902,-0.22475 -1.21674,-0.4242 -1.21674,-0.58096 0,-0.0593 0.0666,-0.29902 0.14806,-0.53262 0.11054,-0.3171 0.20272,-0.40188 0.3638,-0.33457 1.72747,0.72184 3.34199,0.57442 4.03307,-0.36826 0.36961,-0.50419 0.37523,-1.54751 0.011,-2.03574 -0.49432,-0.66254 -0.91293,-0.87339 -2.03117,-1.02311 l -1.06951,-0.14319 v -0.50078 -0.50078 h 0.79902 c 1.7653,0 2.74693,-1.22355 1.98464,-2.47374 -0.4591,-0.75295 -1.83316,-0.89015 -2.99297,-0.29884 -0.27945,0.14247 -0.52066,0.25904 -0.53601,0.25904 -0.0154,0 -0.1,-0.21827 -0.18799,-0.48505 -0.14197,-0.43016 -0.13216,-0.50547 0.0867,-0.66547 0.78438,-0.57356 2.88901,-0.7474 3.83688,-0.31694 1.13748,0.51657 1.68854,1.60578 1.37641,2.72059 -0.17277,0.61707 -0.85928,1.44367 -1.32062,1.59009 -0.36379,0.11546 -0.33711,0.28572 0.0604,0.3855 0.4331,0.1087 1.21878,0.80773 1.48575,1.32191 0.47176,0.90857 0.15951,2.46435 -0.64528,3.21504 -0.8572,0.79958 -2.80328,1.15662 -4.18537,0.76788 z m -83.105286,-0.36653 c 0,-0.3771 0.210881,-0.64158 1.66134,-2.08359 2.978248,-2.96089 3.65714,-4.33764 2.884551,-5.84968 -0.475444,-0.93049 -2.181672,-1.0846 -3.369033,-0.3043 l -0.47679,0.31334 -0.227567,-0.47722 c -0.223988,-0.46971 -0.222732,-0.48096 0.07991,-0.71519 0.958334,-0.74169 2.958152,-1.00256 4.012784,-0.52345 0.648693,0.29469 1.304516,1.01792 1.522791,1.6793 0.09542,0.28914 0.135473,0.83484 0.09671,1.31775 -0.104087,1.29671 -0.675016,2.2189 -2.598736,4.19763 l -1.639828,1.68672 h 2.26808 2.268078 v 0.59532 0.59531 H 64.01798 60.776834 Z m 43.788546,-31.05348 c 0,-2.40109 -0.0307,-4.365623 -0.0682,-4.365623 -0.0375,0 -0.39865,0.186523 -0.80259,0.414493 -0.78325,0.44203 -0.90438,0.41678 -1.03604,-0.21606 -0.0798,-0.383275 -0.0468,-0.416131 0.96157,-0.95911 0.84043,-0.452539 1.17647,-0.562239 1.72229,-0.562239 h 0.67813 v 5.027079 5.02709 h -0.72761 -0.7276 z"
         id="path394" /><path
         style="fill:#504f4f;stroke-width:0.132292"
         d="M 39.742458,118.36642 V 84.698196 h 65.616672 65.61667 v 33.668224 33.66823 H 105.35913 39.742458 Z m 123.245232,29.39163 c 1.36761,-0.63202 2.28612,-1.798 2.56189,-3.25212 0.18308,-0.96538 0.18308,-23.92926 0,-24.89463 -0.27577,-1.45413 -1.19428,-2.62011 -2.56189,-3.25213 l -0.80929,-0.374 -16.83411,-0.0365 -16.83412,-0.0365 -10e-4,-11.00988 -0.001,-11.009883 -0.31204,-0.67011 c -0.44135,-0.947937 -1.04053,-1.576346 -1.91022,-2.003453 l -0.75166,-0.369146 -19.4704,-0.03479 c -19.336392,-0.03455 -19.475372,-0.03293 -20.193937,0.235922 -0.964812,0.360982 -1.841733,1.156932 -2.29777,2.085604 l -0.37123,0.755973 v 11.013273 11.01328 l -17.462501,0.003 c -9.604376,0.002 -17.789923,0.0372 -18.190105,0.0787 -1.476248,0.15319 -2.793509,1.02488 -3.513922,2.3253 l -0.388683,0.70162 v 13.03073 13.03073 l 0.388683,0.70162 c 0.660654,1.19255 1.845705,2.05994 3.106523,2.2738 0.33321,0.0565 26.353103,0.0948 57.821982,0.085 l 57.21615,-0.0177 z m -18.8133,-11.99135 c -0.94908,-0.20215 -1.54723,-0.50727 -1.45673,-0.7431 0.0446,-0.11629 0.1171,-0.35474 0.16106,-0.52988 0.044,-0.17515 0.0884,-0.31841 0.0987,-0.31838 0.0103,4e-5 0.33191,0.1191 0.71468,0.26459 0.99976,0.37999 2.35782,0.36355 2.95558,-0.0358 0.24723,-0.16516 0.5536,-0.50747 0.68082,-0.76068 0.71665,-1.42641 -0.33165,-2.71312 -2.3419,-2.87449 l -0.86597,-0.0695 v -0.44491 c 0,-0.4045 0.0354,-0.44491 0.39036,-0.44491 1.48182,0 2.65414,-0.74801 2.6504,-1.69113 -0.003,-0.67944 -0.25076,-1.11216 -0.79364,-1.38444 -0.62643,-0.31419 -1.3718,-0.28619 -2.27545,0.0854 l -0.75592,0.31089 -0.15023,-0.45517 c -0.18432,-0.5585 -0.0203,-0.7146 1.07545,-1.0236 2.36006,-0.66552 4.25518,0.30254 4.25518,2.17363 0,0.33856 -0.0931,0.79564 -0.20694,1.01575 -0.21678,0.4192 -1.06391,1.23321 -1.2834,1.23321 -0.26739,0 -0.11271,0.23966 0.20638,0.31974 0.44882,0.11265 1.31609,0.91255 1.51806,1.40014 0.0964,0.23287 0.14088,0.74535 0.10858,1.25262 -0.0715,1.12352 -0.54509,1.83284 -1.56896,2.35015 -0.80546,0.40695 -2.1773,0.56976 -3.11607,0.36981 z m -83.397556,-0.48855 c 0,-0.27645 0.436192,-0.79638 2.025514,-2.41432 2.321379,-2.36318 2.798723,-3.111 2.798723,-4.38457 0,-1.15449 -0.527877,-1.76862 -1.62642,-1.89216 -0.661718,-0.0744 -1.692109,0.19642 -2.166287,0.56941 l -0.327775,0.25783 -0.23032,-0.48299 c -0.220561,-0.46252 -0.220055,-0.49088 0.01192,-0.66932 0.875194,-0.67321 2.616248,-0.99256 3.7457,-0.68705 0.792947,0.21449 1.641311,1.06293 1.855531,1.8557 0.228767,0.8466 0.08283,1.88525 -0.403778,2.87368 -0.30947,0.62862 -0.844898,1.28886 -2.07411,2.55758 l -1.656946,1.71021 h 2.265271 2.26527 v 0.52917 0.52917 H 64.01798 60.776834 Z m 43.788546,-31.00079 c 0,-2.40109 -0.0374,-4.365623 -0.0831,-4.365623 -0.0457,0 -0.40769,0.185703 -0.8044,0.412683 -0.76811,0.43946 -0.89007,0.41376 -1.01675,-0.21425 -0.0773,-0.383349 -0.044,-0.416026 0.97848,-0.95911 0.7931,-0.421254 1.20775,-0.562239 1.65362,-0.562239 h 0.59508 v 5.027079 5.02709 h -0.66145 -0.66146 z"
         id="path392" /><path
         style="fill:#333332;stroke-width:0.132292"
         d="M 39.742458,118.36642 V 84.698196 h 65.616672 65.61667 v 33.668224 33.66823 H 105.35913 39.742458 Z m 123.097402,29.51144 c 0.43167,-0.16588 0.94129,-0.53354 1.46695,-1.05833 1.41131,-1.40897 1.31118,-0.28162 1.31118,-14.76092 0,-14.47929 0.10013,-13.35195 -1.31118,-14.76092 -1.43904,-1.43665 0.38195,-1.30715 -18.96252,-1.34852 l -16.83412,-0.036 v -11.0223 -11.022289 l -0.40591,-0.812311 c -0.48791,-0.976376 -1.202,-1.620295 -2.21567,-1.997923 l -0.75186,-0.280092 -19.51302,0.03575 -19.51302,0.03575 -0.669854,0.353526 c -0.800538,0.422496 -1.570102,1.239177 -1.957812,2.077677 -0.281645,0.609115 -0.282751,0.654562 -0.282751,11.624782 v 11.01328 l -17.594793,0.009 c -9.677136,0.005 -17.832917,0.0368 -18.123959,0.0702 -1.646727,0.18902 -2.876332,1.08868 -3.597786,2.63237 l -0.370964,0.79375 v 12.63386 12.63385 l 0.373998,0.80929 c 0.608762,1.31728 1.807651,2.29028 3.146378,2.55355 0.32121,0.0632 26.175793,0.10583 57.862963,0.0955 56.15965,-0.0184 57.29525,-0.0237 57.94375,-0.27291 z m -18.58698,-12.1194 c -0.90244,-0.18471 -1.61123,-0.53679 -1.52628,-0.75815 0.0397,-0.10348 0.10816,-0.33145 0.15212,-0.50659 0.044,-0.17515 0.0884,-0.31841 0.0987,-0.31838 0.0103,4e-5 0.33191,0.1191 0.71468,0.26459 0.99976,0.37999 2.35782,0.36355 2.95558,-0.0358 0.24723,-0.16516 0.5536,-0.50747 0.68082,-0.76068 0.71665,-1.42641 -0.33165,-2.71312 -2.3419,-2.87449 l -0.86597,-0.0695 v -0.44491 c 0,-0.42163 0.0246,-0.44491 0.47058,-0.44491 0.85459,0 1.65633,-0.28365 2.1242,-0.75152 0.37117,-0.37116 0.44793,-0.54612 0.44793,-1.02098 0,-0.70525 -0.34827,-1.18999 -1.01247,-1.40919 -0.60699,-0.20033 -1.59164,-0.0875 -2.27399,0.26065 l -0.52644,0.26856 -0.14407,-0.41329 c -0.0792,-0.22731 -0.14408,-0.45661 -0.14408,-0.50955 0,-0.21369 1.44296,-0.69999 2.24896,-0.75794 1.43498,-0.10317 2.49477,0.35887 2.98132,1.29974 0.27934,0.54019 0.24789,1.68623 -0.0601,2.19138 -0.2691,0.44131 -1.05859,1.10673 -1.3131,1.10673 -0.30826,0 -0.14178,0.24599 0.22029,0.32552 0.51072,0.11217 1.26702,0.76087 1.52781,1.31045 0.52052,1.09691 0.10927,2.68634 -0.88059,3.40339 -0.84212,0.61003 -2.3552,0.88613 -3.53393,0.64486 z M 60.776834,135.2647 c 0,-0.29288 0.332554,-0.695 1.668428,-2.01745 1.940776,-1.92127 2.721176,-2.91093 3.031017,-3.84378 0.645786,-1.94428 -0.757698,-3.35281 -2.69848,-2.70818 -0.364693,0.12113 -0.805757,0.33247 -0.980144,0.46964 l -0.317066,0.24941 -0.226679,-0.47536 c -0.124675,-0.26144 -0.17884,-0.52193 -0.120367,-0.57887 0.05847,-0.0569 0.433734,-0.27095 0.833916,-0.47558 0.628136,-0.32119 0.88133,-0.37221 1.852084,-0.37321 1.343829,-0.001 1.958321,0.2585 2.60459,1.10148 0.772887,1.00815 0.725893,2.53927 -0.121986,3.97449 -0.237646,0.40227 -1.139991,1.46342 -2.00521,2.35813 l -1.573127,1.62673 h 2.267658 2.267658 v 0.52917 0.52917 H 64.01798 60.776834 Z m 43.788546,-30.98734 c 0,-2.40109 -0.0374,-4.365623 -0.0831,-4.365623 -0.0457,0 -0.40769,0.185703 -0.8044,0.412683 -0.76811,0.43946 -0.89007,0.41376 -1.01675,-0.21425 -0.0773,-0.383349 -0.044,-0.416026 0.97848,-0.95911 0.7931,-0.421254 1.20775,-0.562239 1.65362,-0.562239 h 0.59508 v 5.027079 5.02709 h -0.66145 -0.66146 z"
         id="path390" /><path
         style="fill:#000000;stroke-width:0.132292"
         d="M 39.742458,118.36642 V 84.698196 h 65.616672 65.61667 v 33.668224 33.66823 H 105.35913 39.742458 Z M 163.05995,147.7641 c 0.95312,-0.46805 1.72203,-1.23697 2.19009,-2.19009 l 0.36795,-0.74925 v -12.76615 -12.76614 l -0.34321,-0.72761 c -0.43453,-0.92121 -1.25472,-1.74025 -2.21483,-2.21174 l -0.74926,-0.36795 -16.86718,-0.036 -16.86719,-0.036 v -10.87809 c 0,-10.143083 -0.0161,-10.924308 -0.23865,-11.562107 -0.30424,-0.872006 -1.06918,-1.741195 -1.9675,-2.23564 l -0.70427,-0.387635 -19.5063,-0.0348 c -17.129313,-0.03056 -19.590566,-0.0103 -20.197847,0.166239 -0.912709,0.265332 -2.017591,1.265293 -2.446388,2.214078 l -0.315092,0.697192 v 11.013273 11.01328 l -17.594793,0.008 c -9.677136,0.004 -17.82603,0.0318 -18.108654,0.0614 -1.107188,0.11591 -1.838404,0.47381 -2.672878,1.30829 -1.411346,1.41134 -1.311177,0.28356 -1.311177,14.76225 0,11.74954 0.01449,12.54311 0.240834,13.19216 0.260447,0.74683 1.152878,1.83916 1.859282,2.27574 1.127785,0.69701 -2.682122,0.65651 59.283223,0.63005 l 57.41458,-0.0245 z m -18.73749,-12.00758 c -0.91796,-0.15705 -1.6861,-0.52104 -1.59586,-0.75621 0.0397,-0.10348 0.10816,-0.33145 0.15212,-0.50659 0.044,-0.17515 0.0884,-0.31841 0.0987,-0.31838 0.0103,4e-5 0.33191,0.1191 0.71468,0.26459 0.99976,0.37999 2.35782,0.36355 2.95558,-0.0358 0.24723,-0.16516 0.5536,-0.50747 0.68082,-0.76068 0.71804,-1.42917 -0.37257,-2.75806 -2.36779,-2.88511 l -0.84008,-0.0535 v -0.44761 c 0,-0.42473 0.0241,-0.44761 0.47058,-0.44761 0.85459,0 1.65633,-0.28365 2.1242,-0.75152 0.37117,-0.37116 0.44793,-0.54612 0.44793,-1.02098 0,-1.05653 -0.77774,-1.62807 -2.03839,-1.49796 -0.38829,0.0401 -0.9464,0.19551 -1.24024,0.34542 l -0.53427,0.27256 -0.14407,-0.41329 c -0.0792,-0.22731 -0.14408,-0.45661 -0.14408,-0.50955 0,-0.21369 1.44296,-0.69999 2.24896,-0.75794 1.96542,-0.1413 3.175,0.75356 3.175,2.34889 0,0.37103 -0.0872,0.84314 -0.19368,1.04914 -0.22081,0.42699 -0.86794,1.00875 -1.26081,1.13344 -0.37691,0.11963 -0.32834,0.29609 0.10787,0.3919 0.51072,0.11217 1.26702,0.76087 1.52781,1.31045 0.49869,1.05091 0.12807,2.62605 -0.78105,3.31947 -0.85363,0.65109 -2.29203,0.94445 -3.56389,0.72684 z m -83.545626,-0.47837 c 0,-0.27645 0.436192,-0.79638 2.025514,-2.41432 2.182295,-2.22159 2.729128,-3.03709 2.83083,-4.22164 0.0937,-1.09138 -0.584478,-1.95657 -1.645169,-2.09884 -0.604031,-0.081 -1.688324,0.22668 -2.190354,0.62158 l -0.317066,0.24941 -0.227239,-0.47653 c -0.256578,-0.53805 -0.28353,-0.501 0.760112,-1.04485 0.415802,-0.21668 0.954821,-0.36049 1.532856,-0.40895 1.416139,-0.11872 2.360222,0.29736 3.018242,1.33022 0.288977,0.4536 0.350403,0.70759 0.356487,1.47407 0.01224,1.54214 -0.579672,2.57623 -2.740234,4.7873 l -1.462372,1.49655 h 2.270343 2.270342 v 0.52917 0.52917 H 64.01798 60.776834 Z m 43.788546,-31.00079 c 0,-2.40109 -0.0374,-4.365623 -0.0831,-4.365623 -0.0457,0 -0.40769,0.185703 -0.8044,0.412683 -0.76811,0.43946 -0.89007,0.41376 -1.01675,-0.21425 -0.0773,-0.383349 -0.044,-0.416026 0.97848,-0.95911 0.7931,-0.421254 1.20775,-0.562239 1.65362,-0.562239 h 0.59508 v 5.027079 5.02709 h -0.66145 -0.66146 z"
         id="path388" /></g></g></svg>
